<svg viewBox="0 0 8 8" fill="none" xmlns="http://www.w3.org/2000/svg">
    <path d="M1.19388 -0.000160694H6.80612C7.02769 -0.000484467 7.24481 0.0625391 7.43237 0.181615C7.61992 0.300692 7.77024 0.470952 7.86591 0.672688C7.97791 0.912049 8.02105 1.17836 7.99041 1.44126C7.95977 1.70417 7.85659 1.9531 7.69261 2.15968L4.88649 6.62688C4.77637 6.75515 4.64022 6.85802 4.48727 6.92852C4.33432 6.99902 4.16814 7.03551 4 7.03551C3.83186 7.03551 3.66568 6.99902 3.51273 6.92852C3.35978 6.85802 3.22363 6.75515 3.11351 6.62688L0.307385 2.15968C0.143414 1.9531 0.0402279 1.70417 0.00958776 1.44126C-0.0210524 1.17836 0.0220866 0.912049 0.134087 0.672688C0.229763 0.470952 0.380078 0.300692 0.567633 0.181615C0.755188 0.0625391 0.972315 -0.000484467 1.19388 -0.000160694Z" fill="currentColor"/>
</svg>
