<svg viewBox="0 0 8 8" fill="none" xmlns="http://www.w3.org/2000/svg">
    <path d="M1.19388 7.03581H6.80612C7.02769 7.03613 7.24481 6.97311 7.43237 6.85403C7.61992 6.73495 7.77024 6.56469 7.86591 6.36296C7.97791 6.1236 8.02105 5.85729 7.99041 5.59438C7.95977 5.33148 7.85659 5.08255 7.69261 4.87596L4.88649 0.40876C4.77637 0.280495 4.64022 0.177625 4.48727 0.107123C4.33432 0.0366211 4.16814 0.000133619 4 0.000133619C3.83186 0.000133619 3.66568 0.0366211 3.51273 0.107123C3.35978 0.177625 3.22363 0.280495 3.11351 0.40876L0.307385 4.87596C0.143414 5.08255 0.0402279 5.33148 0.00958776 5.59438C-0.0210524 5.85729 0.0220866 6.1236 0.134087 6.36296C0.229763 6.56469 0.380078 6.73495 0.567633 6.85403C0.755188 6.97311 0.972315 7.03613 1.19388 7.03581Z" fill="currentColor"/>
</svg>
